<?xml version="1.0" standalone="no"?>
<svg xmlns="http://www.w3.org/2000/svg" viewBox="0 0 165.312 23.28" width="165.312" height="23.28"><g fill="#007CC7" color="#007CC7" transform="translate(0, 0.266) scale(0.29)"><svg width="100.0" height="59.0" x="0.0" y="0.0" viewBox="0 0 100 59"><path d="M97.901,18l-0.003,0.001C96.896,7.895,88.372,0,78,0c-3.855,0-7.444,1.11-10.498,3H32.498C29.444,1.11,25.855,0,22,0  C11.628,0,3.104,7.895,2.102,18.001L2.099,18C1.751,22.175,0,50.691,0,51c0,4.418,3.581,8,8,8c18.377,0,25.943-15.686,28.666-24  h26.668C66.057,43.314,73.623,59,92,59c4.419,0,8-3.582,8-8C100,50.691,98.249,22.175,97.901,18z M22,32c-6.629,0-12-5.373-12-12  S15.371,8,22,8s12,5.373,12,12S28.629,32,22,32z M78,32c-6.629,0-12-5.373-12-12S71.371,8,78,8s12,5.373,12,12S84.629,32,78,32z"></path><polygon points="31,17 25,17 25,11 19,11 19,17 13,17 13,23 19,23 19,29 25,29 25,23 31,23 "></polygon><path d="M78,16c0,2.21-1.79,4-4,4c-2.205,0-4-1.79-4-4s1.795-4,4-4C76.21,12,78,13.79,78,16z"></path><path d="M86,24c0,2.21-1.79,4-4,4c-2.205,0-4-1.79-4-4s1.795-4,4-4C84.21,20,86,21.79,86,24z"></path></svg></g><line x1="41" y1="1" x2="41" y2="16.64" stroke="#274a64" stroke-linecap="round"></line><path fill="#274a64" fill-rule="nonzero" d="M1.08 17.76Q0.62 17.76 0.31 17.45Q0 17.14 0 16.68L0 16.68L0 1.99Q0 1.54 0.31 1.21Q0.62 0.89 1.08 0.89L1.08 0.89L6.55 0.89Q8.83 0.89 10.27 1.66Q11.71 2.42 12.34 3.62Q12.96 4.82 12.96 6.22L12.96 6.22Q12.96 7.61 12.34 8.81Q11.71 10.01 10.27 10.78Q8.83 11.54 6.55 11.54L6.55 11.54L2.18 11.54L2.18 16.68Q2.18 17.14 1.86 17.45Q1.54 17.76 1.08 17.76L1.08 17.76ZM2.18 9.48L6.34 9.48Q8.78 9.48 9.78 8.54Q10.78 7.61 10.78 6.22L10.78 6.22Q10.78 4.82 9.78 3.89Q8.78 2.95 6.34 2.95L6.34 2.95L2.18 2.95L2.18 9.48ZM16.63 17.76Q16.18 17.76 15.86 17.45Q15.55 17.14 15.55 16.68L15.55 16.68L15.55 1.10Q15.55 0.65 15.86 0.32Q16.18 0 16.63 0L16.63 0Q17.11 0 17.42 0.31Q17.74 0.62 17.74 1.10L17.74 1.10L17.74 16.68Q17.74 17.14 17.41 17.45Q17.09 17.76 16.63 17.76L16.63 17.76ZM24.65 17.88Q23.59 17.88 22.69 17.45Q21.79 17.02 21.26 16.19Q20.74 15.36 20.74 14.28L20.74 14.28Q20.74 12.50 22.14 11.45Q23.54 10.39 26.26 10.39L26.26 10.39L29.16 10.39L29.16 10.20Q29.16 8.62 28.38 7.92Q27.60 7.22 25.94 7.22L25.94 7.22Q25.03 7.22 24.32 7.37Q23.62 7.51 22.75 7.80L22.75 7.80Q22.56 7.85 22.44 7.85L22.44 7.85Q22.08 7.85 21.82 7.58Q21.55 7.32 21.55 6.94L21.55 6.94Q21.55 6.29 22.18 6.02L22.18 6.02Q24.22 5.16 26.33 5.16L26.33 5.16Q27.98 5.16 29.12 5.83Q30.26 6.50 30.80 7.57Q31.34 8.64 31.34 9.89L31.34 9.89L31.34 16.68Q31.34 17.14 31.02 17.45Q30.70 17.76 30.24 17.76L30.24 17.76Q29.78 17.76 29.47 17.45Q29.16 17.14 29.16 16.68L29.16 16.68L29.16 16.06Q27.38 17.88 24.65 17.88L24.65 17.88ZM25.46 15.96Q26.52 15.96 27.50 15.44Q28.49 14.93 29.16 14.16L29.16 14.16L29.16 12.14L26.54 12.14Q22.92 12.14 22.92 14.04L22.92 14.04Q22.92 14.90 23.51 15.43Q24.10 15.96 25.46 15.96L25.46 15.96ZM37.54 23.28Q37.10 23.28 36.80 22.97Q36.50 22.66 36.50 22.22L36.50 22.22Q36.50 22.03 36.58 21.84L36.58 21.84L38.14 17.83L33.62 6.84Q33.53 6.60 33.53 6.38L33.53 6.38Q33.53 5.93 33.84 5.60Q34.15 5.28 34.61 5.28L34.61 5.28Q34.94 5.28 35.22 5.47Q35.50 5.66 35.62 5.95L35.62 5.95L39.31 15.12L43.08 6Q43.39 5.28 44.09 5.28L44.09 5.28Q44.54 5.28 44.86 5.60Q45.17 5.93 45.17 6.38L45.17 6.38Q45.17 6.60 45.10 6.79L45.10 6.79L38.54 22.54Q38.21 23.28 37.54 23.28L37.54 23.28ZM53.40 17.88Q50.35 17.88 47.69 16.73L47.69 16.73Q47.40 16.61 47.21 16.33Q47.02 16.06 47.02 15.74L47.02 15.74Q47.02 15.34 47.29 15.04Q47.57 14.74 48 14.74L48 14.74Q48.24 14.74 48.46 14.83L48.46 14.83Q50.66 15.82 53.18 15.82L53.18 15.82Q57.38 15.82 57.38 13.06L57.38 13.06Q57.38 12.34 56.84 11.86Q56.30 11.38 55.51 11.10Q54.72 10.82 53.26 10.44L53.26 10.44Q51.31 9.94 50.11 9.47Q48.91 9 48.05 8.06Q47.18 7.13 47.18 5.57L47.18 5.57Q47.18 4.20 47.90 3.08Q48.62 1.97 50.03 1.31Q51.43 0.65 53.40 0.65L53.40 0.65Q56.04 0.65 58.18 1.44L58.18 1.44Q58.85 1.68 58.85 2.40L58.85 2.40Q58.85 2.78 58.58 3.10Q58.32 3.41 57.89 3.41L57.89 3.41Q57.74 3.41 57.50 3.31L57.50 3.31Q55.63 2.66 53.64 2.66L53.64 2.66Q51.74 2.66 50.56 3.38Q49.37 4.10 49.37 5.40L49.37 5.40Q49.37 6.26 49.93 6.80Q50.50 7.34 51.35 7.64Q52.20 7.94 53.66 8.28L53.66 8.28Q55.56 8.74 56.72 9.19Q57.89 9.65 58.72 10.61Q59.54 11.57 59.54 13.20L59.54 13.20Q59.54 14.54 58.78 15.61Q58.01 16.68 56.62 17.28Q55.22 17.88 53.40 17.88L53.40 17.88ZM63.36 23.28Q62.90 23.28 62.59 22.96Q62.28 22.63 62.28 22.18L62.28 22.18L62.28 6.36Q62.28 5.90 62.59 5.59Q62.90 5.28 63.36 5.28L63.36 5.28Q63.82 5.28 64.14 5.59Q64.46 5.90 64.46 6.36L64.46 6.36L64.46 6.98Q66.22 5.16 68.57 5.16L68.57 5.16Q70.06 5.16 71.39 5.92Q72.72 6.67 73.55 8.12Q74.38 9.58 74.38 11.52L74.38 11.52Q74.38 13.46 73.55 14.92Q72.72 16.37 71.39 17.12Q70.06 17.88 68.57 17.88L68.57 17.88Q66.22 17.88 64.46 16.06L64.46 16.06L64.46 22.18Q64.46 22.66 64.15 22.97Q63.84 23.28 63.36 23.28L63.36 23.28ZM68.26 15.84Q70.03 15.84 71.11 14.71Q72.19 13.58 72.19 11.52L72.19 11.52Q72.19 9.46 71.11 8.33Q70.03 7.20 68.26 7.20L68.26 7.20Q67.15 7.20 66.18 7.69Q65.21 8.18 64.46 9L64.46 9L64.46 14.04Q65.21 14.86 66.18 15.35Q67.15 15.84 68.26 15.84L68.26 15.84ZM80.54 17.88Q79.49 17.88 78.59 17.45Q77.69 17.02 77.16 16.19Q76.63 15.36 76.63 14.28L76.63 14.28Q76.63 12.50 78.04 11.45Q79.44 10.39 82.15 10.39L82.15 10.39L85.06 10.39L85.06 10.20Q85.06 8.62 84.28 7.92Q83.50 7.22 81.84 7.22L81.84 7.22Q80.93 7.22 80.22 7.37Q79.51 7.51 78.65 7.80L78.65 7.80Q78.46 7.85 78.34 7.85L78.34 7.85Q77.98 7.85 77.71 7.58Q77.45 7.32 77.45 6.94L77.45 6.94Q77.45 6.29 78.07 6.02L78.07 6.02Q80.11 5.16 82.22 5.16L82.22 5.16Q83.88 5.16 85.02 5.83Q86.16 6.50 86.70 7.57Q87.24 8.64 87.24 9.89L87.24 9.89L87.24 16.68Q87.24 17.14 86.92 17.45Q86.59 17.76 86.14 17.76L86.14 17.76Q85.68 17.76 85.37 17.45Q85.06 17.14 85.06 16.68L85.06 16.68L85.06 16.06Q83.28 17.88 80.54 17.88L80.54 17.88ZM81.36 15.96Q82.42 15.96 83.40 15.44Q84.38 14.93 85.06 14.16L85.06 14.16L85.06 12.14L82.44 12.14Q78.82 12.14 78.82 14.04L78.82 14.04Q78.82 14.90 79.40 15.43Q79.99 15.96 81.36 15.96L81.36 15.96ZM96.58 17.88Q94.85 17.88 93.38 17.11Q91.92 16.34 91.04 14.90Q90.17 13.46 90.17 11.52L90.17 11.52Q90.17 9.58 91.04 8.14Q91.92 6.70 93.38 5.93Q94.85 5.16 96.58 5.16L96.58 5.16Q97.85 5.16 98.77 5.48Q99.70 5.81 100.49 6.31L100.49 6.31Q100.97 6.62 100.97 7.15L100.97 7.15Q100.97 7.51 100.69 7.81Q100.42 8.11 100.06 8.11L100.06 8.11Q99.79 8.11 99.53 7.97L99.53 7.97Q98.74 7.56 98.17 7.38Q97.61 7.20 96.77 7.20L96.77 7.20Q94.70 7.20 93.53 8.39Q92.35 9.58 92.35 11.52L92.35 11.52Q92.35 13.46 93.53 14.65Q94.70 15.84 96.77 15.84L96.77 15.84Q97.61 15.84 98.17 15.66Q98.74 15.48 99.53 15.07L99.53 15.07Q99.79 14.93 100.06 14.93L100.06 14.93Q100.42 14.93 100.69 15.23Q100.97 15.53 100.97 15.89L100.97 15.89Q100.97 16.42 100.49 16.73L100.49 16.73Q99.70 17.23 98.77 17.56Q97.85 17.88 96.58 17.88L96.58 17.88ZM109.08 17.88Q106.15 17.88 104.51 16.21Q102.86 14.54 102.86 11.52L102.86 11.52Q102.86 9.82 103.49 8.38Q104.11 6.94 105.41 6.05Q106.70 5.16 108.60 5.16L108.60 5.16Q110.38 5.16 111.67 5.99Q112.97 6.82 113.64 8.20Q114.31 9.58 114.31 11.21L114.31 11.21Q114.31 11.66 114.01 11.98Q113.71 12.29 113.21 12.29L113.21 12.29L105.07 12.29Q105.26 13.97 106.32 14.90Q107.38 15.84 109.27 15.84L109.27 15.84Q110.28 15.84 111.04 15.65Q111.79 15.46 112.51 15.10L112.51 15.10Q112.70 15 112.94 15L112.94 15Q113.33 15 113.62 15.26Q113.90 15.53 113.90 15.94L113.90 15.94Q113.90 16.46 113.28 16.82L113.28 16.82Q112.34 17.35 111.43 17.62Q110.52 17.88 109.08 17.88L109.08 17.88ZM105.07 10.51L112.15 10.51Q112.08 9.34 111.54 8.54Q111 7.75 110.21 7.38Q109.42 7.01 108.60 7.01L108.60 7.01Q107.78 7.01 106.99 7.38Q106.20 7.75 105.67 8.54Q105.14 9.34 105.07 10.51L105.07 10.51Z" transform="translate(51, 0)"></path></svg>